<svg xmlns="http://www.w3.org/2000/svg" xmlns:xlink="http://www.w3.org/1999/xlink" id="Layer_1" x="0" y="0" version="1.1" viewBox="0 0 2272 1872" style="enable-background:new 0 0 2272 1872" xml:space="preserve"><style type="text/css">.st0{fill:#c2e5dc}.st1{fill:#b2ce3a}.st2{fill:#344d23}.st3{fill:#5e3814}.st4{fill:#7f6a2a}.st5{fill:#283e1b}.st6{fill:#71943d}.st7{fill:#909f3a}.st8{fill:#eee8e4}.st9{fill:#7bd1ec}.st10{fill:#bcc9cf}.st11{fill:#f05b6e}.st12{fill:#b22024}.st13{fill:#fbfeff}.st14{fill:#f5f7f7}.st15{fill:#efefef}.st16{fill:#e0e2e2}.st17{fill:#52b8ce}.st18{opacity:.5;fill:#fff}.st19{fill:#cf2227}.st20{fill:#c4c1b7}.st21{fill:#54b9d1}.st22{fill:#cad3d6}.st23{opacity:.3;fill:#fff}.st24{fill:#7a8536}.st25{fill:#8f9289}.st26{fill:#656b5f}.st27{fill:#fff}.st28{opacity:.5;fill:#b22024}.st29{fill:#8e1920}</style><rect id="XMLID_3_" width="2272" height="1872" class="st0"/><polygon id="XMLID_43_" points="1161.2 1714.5 2078.1 1191.5 1124.5 631 206 1155.1" class="st1"/><g id="XMLID_12555_"><ellipse id="XMLID_12645_" cx="527.5" cy="1127.2" class="st2" rx="21.1" ry="7"/><path id="XMLID_12559_" d="M515.3,1047.4l0,77.5c0,0,5.3,3.5,12.2,3.7l0-81.2H515.3z" class="st3"/><path id="XMLID_12565_" d="M527.5,1047.4l0,81.2c3.8,0.1,8-0.8,12.2-3.7l0-77.5H527.5z" class="st4"/><polygon id="XMLID_12557_" points="527.5 789.4 527.5 1082.6 438.8 1052.3 469.3 973.8 452.7 963.1 496.3 871.8 485.7 867.8" class="st2"/><polygon id="XMLID_12561_" points="527.5 991.4 477.6 973.5 527.5 999" class="st5"/><polygon id="XMLID_12563_" points="527.5 880.1 502.6 872.4 527.5 887.7" class="st5"/><polygon id="XMLID_12621_" points="527.5 789.4 527.5 1082.6 616.2 1052.3 585.8 973.8 602.4 963.1 558.7 871.8 569.3 867.8" class="st6"/><polygon id="XMLID_12569_" points="527.5 991.4 577.5 973.5 527.5 999" class="st5"/><polygon id="XMLID_12567_" points="527.5 880.1 552.5 872.4 527.5 887.7" class="st5"/></g><polygon id="XMLID_47_" points="206 1155.1 206 1173.5 1161.2 1732.9 1161.2 1714.5" class="st7"/><polygon id="XMLID_42_" points="1228.8 727.8 716.4 427.8 716.4 1184.6 846.6 1262.6 867.4 1249.9 1077.7 1373 1077.7 1396.9 1228.8 1484.7" class="st8"/><polygon id="XMLID_24_" points="867.4 948.9 867.4 1249.9 1077.7 1373 1077.7 1072" class="st9"/><polygon id="XMLID_7_" points="1795.3 405.9 1795.3 1162.8 1228.8 1484.7 1228.8 727.8" class="st10"/><polygon id="XMLID_9_" points="939.2 641.2 964 626.9 1031.5 664.2 1005.9 678" class="st11"/><polygon id="XMLID_15_" points="1067.3 834.2 1092.1 819.8 1092.1 755.4 1067.3 769.8" class="st12"/><polygon id="XMLID_16_" points="879.3 665.7 904.1 651.3 964 684.5 939.2 698.9" class="st11"/><polygon id="XMLID_17_" points="1006.7 858.3 1031.5 844 1031.5 786.3 1006.7 786.3" class="st12"/><polygon id="XMLID_19_" points="1031.5 664.2 1031.5 721.9 1006.7 736.3 1005.9 678" class="st12"/><polygon id="XMLID_18_" points="1091.9 755.3 1067 769.7 1006.7 736.3 1031.5 721.9" class="st11"/><polygon id="XMLID_22_" points="716.4 427.8 794.9 421.7 1278.1 146.1 1281.9 105.2" class="st13"/><polygon id="XMLID_26_" points="1228.8 727.8 1232.7 678 794.9 421.7 716.4 427.8" class="st14"/><polygon id="XMLID_27_" points="1795.3 405.9 1716.7 403 1232.7 678 1228.8 727.8" class="st13"/><polygon id="XMLID_28_" points="1281.9 105.2 1795.7 405.9 1717.1 403 1278.1 146.1" class="st14"/><polygon id="XMLID_25_" points="1278.1 146.1 1278.1 223.8 1647.4 442.3 1717.1 403" class="st15"/><polygon id="XMLID_29_" points="1278.1 223.8 860 459.8 794.9 421.7 1278.1 146.1" class="st16"/><polygon id="XMLID_38_" points="867.4 1249.9 1077.7 1129.4 1077.7 1072 867.4 948.9" class="st17"/><polygon id="XMLID_39_" points="867.4 1202 940.8 1292.8 867.4 1249.9" class="st18"/><g id="XMLID_8_"><path id="XMLID_10_" d="M1006.7,800.7v57.7l-67.5-37.4v-57.7l-59.9-33.2v-64.4l59.9,33.2v-57.7l67.5,37.4v57.7 l60.4,33.4v64.4L1006.7,800.7z" class="st19"/></g><polygon id="XMLID_2_" points="860 459.8 1278.1 223.8 1647.4 442.3 1232.7 678" class="st20"/><polygon id="XMLID_30_" points="867.4 1249.9 867.4 948.9 845 935.3 846.6 1262.6" class="st10"/><polygon id="XMLID_40_" points="983.7 1016.9 976.7 1012.8 976.7 1187.3 983.7 1183.2" class="st9"/><polygon id="XMLID_41_" points="976.7 1187.3 976.7 1313.8 983.7 1317.9 983.7 1183.2" class="st21"/><polygon id="XMLID_34_" points="959.6 1002.8 1077.7 1165.4 1077.7 1217.5 889.6 961.9" class="st18"/><polygon id="XMLID_35_" points="867.4 961.9 1077.7 1244.7 1077.7 1262.6 867.4 978" class="st18"/><polygon id="XMLID_37_" points="867.4 1093.5 1077.7 1365 1077.7 1373 1009.3 1332.9 867.4 1153.6" class="st18"/><polygon id="XMLID_36_" points="867.4 1075.2 1077.7 1342 1077.7 1334 867.4 1067.2" class="st18"/><g id="XMLID_20_"><polygon id="XMLID_13_" points="1431.2 710.2 1431.2 864.4 1322.6 926 1322.6 771.9" class="st17"/><polygon id="XMLID_21_" points="1450.9 843.4 1450.9 871.7 1332.7 938.6 1332.7 910.2" class="st22"/><polygon id="XMLID_14_" points="1317 901.2 1332.7 910.2 1450.9 843.4 1435.2 834.4" class="st8"/><polygon id="XMLID_23_" points="1317 929.6 1332.7 938.6 1332.7 910.2 1317 901.2" class="st8"/><polygon id="XMLID_5_" points="1431.2 710.2 1417.4 718 1417.4 844.4 1431.2 836.6" class="st8"/><polygon id="XMLID_12_" points="1376.9 741 1322.6 810.4 1322.6 842 1417.4 718" class="st23"/><polygon id="XMLID_31_" points="1417.4 747.6 1322.6 875.4 1322.6 884.5 1417.4 754.8" class="st23"/><polygon id="XMLID_32_" points="1417.4 798.4 1365.4 873.8 1373.8 869.1 1417.4 806.2" class="st23"/></g><g id="XMLID_44_"><polygon id="XMLID_86_" points="1681.6 586.1 1681.6 740.3 1573 801.9 1573 647.7" class="st17"/><polygon id="XMLID_83_" points="1701.4 719.2 1701.4 747.6 1583.2 814.4 1583.2 786.1" class="st22"/><polygon id="XMLID_80_" points="1567.4 777.1 1583.2 786.1 1701.4 719.2 1685.6 710.2" class="st8"/><polygon id="XMLID_77_" points="1567.4 805.4 1583.2 814.4 1583.2 786.1 1567.4 777.1" class="st8"/><polygon id="XMLID_74_" points="1681.6 586.1 1667.9 593.9 1667.9 720.3 1681.6 712.5" class="st8"/><polygon id="XMLID_66_" points="1627.3 616.9 1573 686.3 1573 717.9 1667.9 593.9" class="st23"/><polygon id="XMLID_46_" points="1667.9 623.5 1573 751.2 1573 760.3 1667.9 630.7" class="st23"/><polygon id="XMLID_45_" points="1667.9 674.3 1615.9 749.7 1624.2 745 1667.9 682" class="st23"/></g><g id="XMLID_104_"><polygon id="XMLID_120_" points="1434 1018.4 1434 1172.6 1325.4 1234.2 1325.4 1080" class="st17"/><polygon id="XMLID_117_" points="1453.8 1151.5 1453.8 1179.8 1335.6 1246.7 1335.6 1218.4" class="st22"/><polygon id="XMLID_114_" points="1319.8 1209.4 1335.6 1218.4 1453.8 1151.5 1438 1142.5" class="st8"/><polygon id="XMLID_111_" points="1319.8 1237.7 1335.6 1246.7 1335.6 1218.4 1319.8 1209.4" class="st8"/><polygon id="XMLID_108_" points="1434 1018.4 1420.3 1026.2 1420.3 1152.5 1434 1144.8" class="st8"/><polygon id="XMLID_107_" points="1379.7 1049.2 1325.4 1118.5 1325.4 1150.2 1420.3 1026.2" class="st23"/><polygon id="XMLID_106_" points="1420.3 1055.8 1325.4 1183.5 1325.4 1192.6 1420.3 1063" class="st23"/><polygon id="XMLID_105_" points="1420.3 1106.6 1368.3 1182 1376.6 1177.2 1420.3 1114.3" class="st23"/></g><g id="XMLID_87_"><polygon id="XMLID_103_" points="1684.5 894.2 1684.5 1048.4 1575.9 1110 1575.9 955.8" class="st17"/><polygon id="XMLID_100_" points="1704.2 1027.4 1704.2 1055.7 1586 1122.5 1586 1094.2" class="st22"/><polygon id="XMLID_97_" points="1570.2 1085.2 1586 1094.2 1704.2 1027.4 1688.4 1018.4" class="st8"/><polygon id="XMLID_94_" points="1570.2 1113.5 1586 1122.5 1586 1094.2 1570.2 1085.2" class="st8"/><polygon id="XMLID_91_" points="1684.5 894.2 1670.7 902 1670.7 1028.4 1684.5 1020.6" class="st8"/><polygon id="XMLID_90_" points="1630.2 925 1575.9 994.4 1575.9 1026 1670.7 902" class="st23"/><polygon id="XMLID_89_" points="1670.7 931.6 1575.9 1059.4 1575.9 1068.4 1670.7 938.8" class="st23"/><polygon id="XMLID_88_" points="1670.7 982.4 1618.7 1057.8 1627 1053.1 1670.7 990.2" class="st23"/></g><polygon id="XMLID_48_" points="1161.2 1732.9 2078.1 1210.7 2078.1 1191.5 1161.2 1714.5" class="st24"/><g id="XMLID_176_"><ellipse id="XMLID_185_" cx="1332.7" cy="1565.4" class="st2" rx="21.1" ry="7"/><path id="XMLID_184_" d="M1320.5,1485.5l0,77.5c0,0,5.3,3.5,12.2,3.7l0-81.2H1320.5z" class="st3"/><path id="XMLID_183_" d="M1332.7,1485.5l0,81.2c3.8,0.1,8-0.8,12.2-3.7l0-77.5H1332.7z" class="st4"/><polygon id="XMLID_182_" points="1332.7 1227.6 1332.7 1520.7 1244 1490.5 1274.5 1411.9 1257.9 1401.3 1301.5 1309.9 1290.9 1305.9" class="st2"/><polygon id="XMLID_181_" points="1332.7 1429.5 1282.8 1411.6 1332.7 1437.1" class="st5"/><polygon id="XMLID_180_" points="1332.7 1318.2 1307.7 1310.5 1332.7 1325.8" class="st5"/><polygon id="XMLID_179_" points="1332.7 1227.6 1332.7 1520.7 1421.4 1490.5 1391 1411.9 1407.6 1401.3 1363.9 1309.9 1374.5 1305.9" class="st6"/><polygon id="XMLID_178_" points="1332.7 1429.5 1382.7 1411.6 1332.7 1437.1" class="st5"/><polygon id="XMLID_177_" points="1332.7 1318.2 1357.7 1310.5 1332.7 1325.8" class="st5"/></g><polygon id="XMLID_186_" points="716.4 834.2 615.5 876.6 716.4 936" class="st19"/><polygon id="XMLID_187_" points="615.5 876.6 716.4 818.1 716.4 834.2" class="st11"/><polygon id="XMLID_171_" points="716.4 1106.5 716.4 1073 677 1047.4 677 1083.5" class="st8"/><polygon id="XMLID_190_" points="677 1047.4 716.4 1025 716.4 1073" class="st10"/><polygon id="XMLID_189_" points="846.6 1262.6 614.8 1394.5 845.5 1529.3 1077.7 1396.9 1077.7 1373 867.4 1249.9" class="st25"/><path id="XMLID_193_" d="M861.8,1264.8c0,0,13.5-1.8,26.6,6.2c13.1,7.9,11.4,11.9,21.5,15.9c10.2,4,11.4,19-4.9,19.9	c-16.3,0.9-32.7,6.5-46.1-2.7C845.4,1294.8,844.5,1262.8,861.8,1264.8z" class="st26"/><path id="XMLID_194_" d="M898.2,1321.8c0,0-11.6-4.3-27.6,7.2s-11.4,34.4-3.4,40s21.1,7.1,34.4,18.6	c13.3,11.5,27.1,12,34.1-4.5S920.7,1328.6,898.2,1321.8z" class="st26"/><path id="XMLID_195_" d="M956.5,1313c0,0-7.4-5.5-22.7-2.5c-15.3,3-14.1,21-5.2,26.5s12.4,22,21.4,27.5s34,5.5,37-11.5	S956.5,1313,956.5,1313z" class="st26"/><path id="XMLID_192_" d="M976.7,1389.6c0,0-13.7-1.5-23.7,7c-10,8.4-7.1,25.1,5.2,31s25.8,10.1,34.3,5	C1001,1427.5,1007.9,1394.7,976.7,1389.6z" class="st26"/><path id="XMLID_198_" d="M1053.5,1373c0,0-8.9-11.1-21.2-10.5c-12.3,0.6-25.2,7.5-32.6,7.6	c-7.4,0.1-19.7,15.6,3.8,21.5s29.6,2.5,37.7,7.2C1049.3,1403.5,1067.5,1391.4,1053.5,1373z" class="st26"/><path id="XMLID_196_" d="M933.7,1415.2c0,0-10.6-8.5-25.9,0c-15.3,8.5-21,17.9-28.3,22.5c-7.3,4.7-8.7,13.7,0,21	c8.7,7.3,23.3,5,30,0c6.7-5,12.2-15.8,22.7-16.3S946,1422.7,933.7,1415.2z" class="st26"/><path id="XMLID_203_" d="M887.7,1406.7c-0.1-9.7-6.5-18.1-15.5-21.6c-2.5-0.9-5.2-1.6-8.2-1.5	c-10.7,0.3-21.3,7.3-18.7,15.3s13.9,12.7,18.6,18.5s23.4-0.1,23.7-9.6C887.7,1407.5,887.7,1407.1,887.7,1406.7z" class="st26"/><path id="XMLID_204_" d="M854.2,1307.7c0,0-20.4-15.6-32.1-15.6c-11.7,0-26.3,2.5-32.3,15.6c-6,13.1,2,19.1,19,20.8	s24.5-2.4,33.6-1C851.5,1328.8,866.7,1316,854.2,1307.7z" class="st26"/><path id="XMLID_201_" d="M821.5,1347.6c0,0,15.7-6,22.3-1.7c6.7,4.3,9.9,12.2,6.6,23c-3.3,10.7-12.3,24.5-22.9,28.8	c-10.7,4.3-22,6.1-31.6,0c-9.7-6.1-13.4-21.5-1.7-28.8C805.9,1361.6,808.7,1350.7,821.5,1347.6z" class="st26"/><path id="XMLID_206_" d="M828.7,1412.2c0,0,13.3-2.6,20.1,4.6s13,11.2,7.9,22.2c-5.1,11-16.7,14.3-24.7,12.7	c-8-1.7-25.7-16-20.3-26.7C817,1414.3,828.7,1412.2,828.7,1412.2z" class="st26"/><path id="XMLID_205_" d="M902,1488.3c0,0,0.7-9.3-9.7-14c-10.3-4.7-12,10.4-21,16.9s-12.2,13-5,17.5	C873.5,1513.3,903.1,1493.9,902,1488.3z" class="st26"/><path id="XMLID_208_" d="M872,1471c0,0-14.8-16.3-27.1-10s-13.9,13.9-20.6,17.9c-6.7,4.1-7.2,13.2,1.6,17.3	c8.8,4.1,19.1,3,26.8-4.8C860.3,1483.7,878.8,1478.5,872,1471z" class="st26"/><path id="XMLID_209_" d="M795.5,1414c0,0-14.8-12.5-36.5-5.3s-19,22.3-9.8,27s21,0.2,31,3.2c10,3,18,0.6,21.3-7.1	C804.8,1424.3,795.5,1414,795.5,1414z" class="st26"/><path id="XMLID_210_" d="M807.5,1453.3c0,0-14-6.9-26.1-1.2c-12.1,5.7-15.6,16.6-11.6,21.4c4,4.8,18.3,5.5,23.8,9.5	s19.3,2,22.8-7.5S816.3,1457.5,807.5,1453.3z" class="st26"/><path id="XMLID_211_" d="M783.7,1335.6c0,0-10.7-13.6-26.3-12c-15.7,1.7-29,10.9-34.7,18.4c-5.7,7.6,9,31.1,28.7,24.5	c19.7-6.6,21.7-8,32.3-9.3C794.4,1356,797.4,1348.9,783.7,1335.6z" class="st26"/><path id="XMLID_212_" d="M758.6,1381.3c0,0-22.7-2.7-33.3,4s-16.6,17.6-4.3,25.3c12.3,7.7,25.6-11.4,35.8-13.2	c10.2-1.8,13.2-4.1,13.9-10.3C771.3,1380.9,758.6,1381.3,758.6,1381.3z" class="st26"/><path id="XMLID_213_" d="M686.7,1373c0,0-15.7-1-29,10.2c-13.3,11.2-12.7,18.5,1.7,25.5c14.3,7,21.3,4.1,29.7,3.1	s7.7-14.7,15.7-22.2C712.7,1382,702.3,1373.2,686.7,1373z" class="st26"/><path id="XMLID_214_" d="M707.4,1421.8c0,0,10.9-0.5,21.2,7.5c10.3,8,18.3,18.4,26.3,18.7s6.3,16.4-10.3,11.5	c-16.7-4.9-47.7-20.5-45.3-29.2C701.7,1421.7,707.4,1421.8,707.4,1421.8z" class="st26"/><g id="XMLID_191_"><polygon id="XMLID_49_" points="898.4 1326.9 1158.1 1478.9 1158.1 1630.1 899.7 1478.5" class="st19"/><polygon id="XMLID_50_" points="1158.1 1630.1 1168.1 1624.2 1168.1 1473.1 1158.1 1478.9" class="st12"/><polygon id="XMLID_53_" points="898.4 1326.9 908.4 1321 1168.1 1473.1 1158.1 1478.9" class="st11"/><g id="XMLID_148_"><path id="XMLID_166_" d="M932.4,1436.6v-12.3l-11.6-7v12.3l-9-5.4v-32.6l9,5.4v12.5l11.6,7v-12.5l9.1,5.5v32.6 L932.4,1436.6z" class="st11"/><path id="XMLID_163_" d="M961.7,1455.1c-2.4-1.5-4.7-3.3-6.8-5.4c-2.1-2.2-3.9-4.5-5.5-7c-1.6-2.5-2.8-5.1-3.7-7.7 c-0.9-2.7-1.4-5.2-1.4-7.6s0.5-4.4,1.4-5.9c0.9-1.6,2.2-2.6,3.7-3.3c1.6-0.6,3.4-0.7,5.5-0.4c2.1,0.4,4.4,1.3,6.8,2.7 c2.4,1.4,4.6,3.2,6.8,5.4c2.1,2.2,4,4.5,5.5,7s2.8,5.1,3.7,7.7c0.9,2.7,1.4,5.2,1.4,7.6s-0.5,4.4-1.4,5.9 c-0.9,1.6-2.2,2.6-3.7,3.3s-3.4,0.7-5.5,0.4C966.3,1457.5,964,1456.6,961.7,1455.1z M961.7,1428.9c-1.2-0.7-2.4-1.2-3.4-1.3 c-1.1-0.1-2,0-2.7,0.3c-0.8,0.4-1.4,0.9-1.8,1.8c-0.4,0.8-0.7,1.8-0.7,3c0,1.2,0.2,2.4,0.7,3.8c0.4,1.4,1,2.7,1.8,3.9 c0.8,1.3,1.7,2.5,2.7,3.6c1.1,1.1,2.2,2.1,3.4,2.8c1.2,0.7,2.4,1.2,3.4,1.3c1.1,0.1,2,0,2.7-0.3c0.8-0.4,1.4-1,1.8-1.8 c0.4-0.8,0.7-1.8,0.7-3c0-1.2-0.2-2.5-0.7-3.8c-0.4-1.3-1-2.6-1.8-3.9c-0.8-1.3-1.7-2.5-2.7-3.6 C964,1430.6,962.9,1429.7,961.7,1428.9z" class="st11"/><path id="XMLID_161_" d="M994.4,1474.8c-2.2-1.3-4.4-2.9-6.5-4.7s-4.2-3.8-6.2-5.9c-0.1,0-0.2-0.2-0.4-0.4 c-0.2-0.3-0.3-0.4-0.3-0.5c0,0,0.1-0.1,0.2-0.2c0.1-0.1,0.3-0.3,0.4-0.5c0.2-0.2,0.4-0.4,0.6-0.7c0.2-0.2,0.4-0.5,0.7-0.7 c0.5-0.5,0.9-1,1.3-1.4c0.4-0.4,0.7-0.8,0.9-1c0.4,0.4,0.7,0.7,1.1,1.1c1.5,1.7,3,3.2,4.6,4.5c1.5,1.3,3.1,2.5,4.9,3.5 c0.5,0.3,1,0.6,1.5,0.9c0.5,0.3,1,0.5,1.5,0.6c0.4,0.1,0.8,0.1,1.1-0.1c0.3-0.2,0.4-0.6,0.4-1.2c0-0.3-0.1-0.6-0.3-1 c-0.2-0.3-0.4-0.7-0.6-1c-0.3-0.3-0.5-0.7-0.8-1c-0.3-0.3-0.5-0.6-0.8-0.8c-0.6-0.6-1.2-1.1-1.8-1.6c-0.6-0.5-1.2-1-1.9-1.5 c-0.8-0.7-1.6-1.3-2.4-2c-0.8-0.6-1.5-1.3-2.3-2c-0.8-0.7-1.5-1.4-2.2-2c-0.7-0.7-1.3-1.4-1.9-2.1c-1.2-1.5-2.2-3-2.9-4.7 c-0.7-1.7-1.1-3.5-1.1-5.5c0-0.7,0.1-1.4,0.2-2c0.2-0.6,0.4-1.2,0.7-1.6c0.6-0.9,1.4-1.5,2.4-1.8c1-0.3,2.1-0.3,3.3,0 c1.2,0.2,2.4,0.7,3.8,1.3c1.3,0.6,2.6,1.3,4,2.1c2.2,1.3,4.3,2.8,6.4,4.6c2.1,1.8,4.1,3.8,6,6.2c-0.7,0.8-1.4,1.5-2,2.3 c-0.7,0.7-1.3,1.5-2,2.3c-1.6-1.8-3.2-3.4-4.7-4.8c-1.5-1.4-3.2-2.7-4.9-3.7c-0.4-0.3-0.9-0.5-1.3-0.7c-0.5-0.2-0.9-0.4-1.3-0.5 c-0.4-0.1-0.7,0-1,0.2c-0.3,0.2-0.4,0.5-0.4,1.1c0,0.4,0.1,0.8,0.3,1.2c0.2,0.4,0.6,0.9,1.1,1.5c0.5,0.5,1.2,1.2,1.9,1.8 c0.8,0.7,1.6,1.3,2.5,2.1c0.9,0.7,1.8,1.5,2.8,2.3c1,0.8,1.9,1.7,2.9,2.6s1.9,1.8,2.7,2.8c0.9,1,1.6,2,2.3,3 c0.7,1,1.2,2.1,1.6,3.2c0.3,0.8,0.5,1.7,0.6,2.5c0.1,0.8,0.2,1.6,0.2,2.3c0,2.1-0.4,3.6-1.3,4.5c-0.9,0.8-2,1.3-3.4,1.2 c-1.4,0-3-0.4-4.8-1.2C998,1476.8,996.2,1475.9,994.4,1474.8z" class="st11"/><path id="XMLID_158_" d="M1029.3,1484.6l-5.9-3.6v10.1l-8.8-5.3v-32.6l14.7,8.8c1.6,0.9,3.1,2.1,4.5,3.5 s2.7,2.9,3.8,4.5c1.1,1.6,2,3.3,2.7,5c0.7,1.7,1,3.4,1,5c0,1.6-0.3,2.9-1,3.9c-0.7,1-1.5,1.7-2.7,2.1c-1.1,0.4-2.4,0.4-3.8,0.2 C1032.4,1486.2,1030.9,1485.6,1029.3,1484.6z M1028.7,1469l-5.1-3.1v7l5.1,3.1c0.5,0.3,1,0.5,1.4,0.6c0.4,0.1,0.8,0.1,1.2,0 c0.3-0.1,0.6-0.3,0.8-0.6c0.2-0.3,0.3-0.7,0.3-1.2s-0.1-1-0.3-1.6c-0.2-0.5-0.5-1.1-0.8-1.6s-0.7-1-1.2-1.5 C1029.7,1469.7,1029.2,1469.3,1028.7,1469z" class="st11"/><path id="XMLID_156_" d="M1044.8,1504.1v-32.6l8.8,5.3v32.6L1044.8,1504.1z" class="st11"/><path id="XMLID_154_" d="M1085.6,1504l-9-5.4v24.6l-8.9-5.3v-24.6l-9-5.4l-0.6-0.9v-7.5l28,16.8v7.5L1085.6,1504z" class="st11"/><path id="XMLID_151_" d="M1105.6,1540.6l-1.7-5.5l-10.1-6l-1.7,3.5l-9.2-5.5l12.1-25.4l7.7,4.6l12.1,39.9 L1105.6,1540.6z M1098.9,1515.8l-2.6,7.1l5.2,3.1L1098.9,1515.8z" class="st11"/><path id="XMLID_149_" d="M1118.2,1548.2v-32.6l9,5.4v24.6l17.2,10.3v8.1L1118.2,1548.2z" class="st11"/></g><g id="XMLID_52_"><path id="XMLID_56_" d="M932.3,1441.6v-12.3l-11.6-7v12.3l-9-5.4v-32.6l9,5.4v12.5l11.6,7V1409l9.1,5.5v32.6 L932.3,1441.6z" class="st27"/><path id="XMLID_60_" d="M961.6,1460.2c-2.4-1.5-4.7-3.3-6.8-5.4c-2.1-2.2-3.9-4.5-5.5-7c-1.6-2.5-2.8-5.1-3.7-7.7 c-0.9-2.7-1.4-5.2-1.4-7.6s0.5-4.4,1.4-5.9c0.9-1.6,2.2-2.6,3.7-3.3c1.6-0.6,3.4-0.7,5.5-0.4c2.1,0.4,4.4,1.3,6.8,2.7 c2.4,1.4,4.6,3.2,6.8,5.4c2.1,2.2,4,4.5,5.5,7s2.8,5.1,3.7,7.7c0.9,2.7,1.4,5.2,1.4,7.6s-0.5,4.4-1.4,5.9 c-0.9,1.6-2.2,2.6-3.7,3.3s-3.4,0.7-5.5,0.4C966.2,1462.5,964,1461.6,961.6,1460.2z M961.6,1434c-1.2-0.7-2.4-1.2-3.4-1.3 c-1.1-0.1-2,0-2.7,0.3c-0.8,0.4-1.4,0.9-1.8,1.8c-0.4,0.8-0.7,1.8-0.7,3c0,1.2,0.2,2.4,0.7,3.8c0.4,1.4,1,2.7,1.8,3.9 c0.8,1.3,1.7,2.5,2.7,3.6c1.1,1.1,2.2,2.1,3.4,2.8c1.2,0.7,2.4,1.2,3.4,1.3c1.1,0.1,2,0,2.7-0.3c0.8-0.4,1.4-1,1.8-1.8 c0.4-0.8,0.7-1.8,0.7-3c0-1.2-0.2-2.5-0.7-3.8c-0.4-1.3-1-2.6-1.8-3.9c-0.8-1.3-1.7-2.5-2.7-3.6 C964,1435.6,962.8,1434.7,961.6,1434z" class="st27"/><path id="XMLID_132_" d="M994.4,1479.9c-2.2-1.3-4.4-2.9-6.5-4.7s-4.2-3.8-6.2-5.9c-0.1,0-0.2-0.2-0.4-0.4 c-0.2-0.3-0.3-0.4-0.3-0.5c0,0,0.1-0.1,0.2-0.2c0.1-0.1,0.3-0.3,0.4-0.5c0.2-0.2,0.4-0.4,0.6-0.7c0.2-0.2,0.4-0.5,0.7-0.7 c0.5-0.5,0.9-1,1.3-1.4c0.4-0.4,0.7-0.8,0.9-1c0.4,0.4,0.7,0.7,1.1,1.1c1.5,1.7,3,3.2,4.6,4.5c1.5,1.3,3.1,2.5,4.9,3.5 c0.5,0.3,1,0.6,1.5,0.9c0.5,0.3,1,0.5,1.5,0.6c0.4,0.1,0.8,0.1,1.1-0.1c0.3-0.2,0.4-0.6,0.4-1.2c0-0.3-0.1-0.6-0.3-1 c-0.2-0.3-0.4-0.7-0.6-1c-0.3-0.3-0.5-0.7-0.8-1c-0.3-0.3-0.5-0.6-0.8-0.8c-0.6-0.6-1.2-1.1-1.8-1.6c-0.6-0.5-1.2-1-1.9-1.5 c-0.8-0.7-1.6-1.3-2.4-2c-0.8-0.6-1.5-1.3-2.3-2c-0.8-0.7-1.5-1.4-2.2-2c-0.7-0.7-1.3-1.4-1.9-2.1c-1.2-1.5-2.2-3-2.9-4.7 c-0.7-1.7-1.1-3.5-1.1-5.5c0-0.7,0.1-1.4,0.2-2c0.2-0.6,0.4-1.2,0.7-1.6c0.6-0.9,1.4-1.5,2.4-1.8c1-0.3,2.1-0.3,3.3,0 c1.2,0.2,2.4,0.7,3.8,1.3c1.3,0.6,2.6,1.3,4,2.1c2.2,1.3,4.3,2.8,6.4,4.6c2.1,1.8,4.1,3.8,6,6.2c-0.7,0.8-1.4,1.5-2,2.3 c-0.7,0.7-1.3,1.5-2,2.3c-1.6-1.8-3.2-3.4-4.7-4.8c-1.5-1.4-3.2-2.7-4.9-3.7c-0.4-0.3-0.9-0.5-1.3-0.7c-0.5-0.2-0.9-0.4-1.3-0.5 c-0.4-0.1-0.7,0-1,0.2c-0.3,0.2-0.4,0.5-0.4,1.1c0,0.4,0.1,0.8,0.3,1.2c0.2,0.4,0.6,0.9,1.1,1.5c0.5,0.5,1.2,1.2,1.9,1.8 c0.8,0.7,1.6,1.3,2.5,2.1c0.9,0.7,1.8,1.5,2.8,2.3c1,0.8,1.9,1.7,2.9,2.6s1.9,1.8,2.7,2.8c0.9,1,1.6,2,2.3,3 c0.7,1,1.2,2.1,1.6,3.2c0.3,0.8,0.5,1.7,0.6,2.5c0.1,0.8,0.2,1.6,0.2,2.3c0,2.1-0.4,3.6-1.3,4.5c-0.9,0.8-2,1.3-3.4,1.2 c-1.4,0-3-0.4-4.8-1.2C997.9,1481.8,996.1,1480.9,994.4,1479.9z" class="st27"/><path id="XMLID_136_" d="M1029.2,1489.7l-5.9-3.6v10.1l-8.8-5.3v-32.6l14.7,8.8c1.6,0.9,3.1,2.1,4.5,3.5 s2.7,2.9,3.8,4.5c1.1,1.6,2,3.3,2.7,5c0.7,1.7,1,3.4,1,5c0,1.6-0.3,2.9-1,3.9c-0.7,1-1.5,1.7-2.7,2.1c-1.1,0.4-2.4,0.4-3.8,0.2 C1032.3,1491.2,1030.8,1490.6,1029.2,1489.7z M1028.6,1474.1l-5.1-3.1v7l5.1,3.1c0.5,0.3,1,0.5,1.4,0.6c0.4,0.1,0.8,0.1,1.2,0 c0.3-0.1,0.6-0.3,0.8-0.6c0.2-0.3,0.3-0.7,0.3-1.2s-0.1-1-0.3-1.6c-0.2-0.5-0.5-1.1-0.8-1.6s-0.7-1-1.2-1.5 C1029.6,1474.7,1029.1,1474.4,1028.6,1474.1z" class="st27"/><path id="XMLID_139_" d="M1044.7,1509.1v-32.6l8.8,5.3v32.6L1044.7,1509.1z" class="st27"/><path id="XMLID_141_" d="M1085.6,1509.1l-9-5.4v24.6l-8.9-5.3v-24.6l-9-5.4l-0.6-0.9v-7.5l28,16.8v7.5L1085.6,1509.1 z" class="st27"/><path id="XMLID_143_" d="M1105.5,1545.6l-1.7-5.5l-10.1-6l-1.7,3.5l-9.2-5.5l12.1-25.4l7.7,4.6l12.1,39.9 L1105.5,1545.6z M1098.8,1520.9l-2.6,7.1l5.2,3.1L1098.8,1520.9z" class="st27"/><path id="XMLID_146_" d="M1118.1,1553.2v-32.6l9,5.4v24.6l17.2,10.3v8.1L1118.1,1553.2z" class="st27"/></g><polygon id="XMLID_54_" points="928.6 1495.4 928.6 1578.3 953.1 1592.7 953.1 1509.4" class="st19"/><polygon id="XMLID_168_" points="959.5 1513.5 959.5 1588.8 953.1 1592.7 953.1 1509.4" class="st12"/><polygon id="XMLID_169_" points="928.6 1495.4 953.1 1509.4 953.1 1522.1 928.6 1508.7" class="st28"/><polygon id="XMLID_170_" points="953.1 1522.1 959.5 1518.6 959.5 1513.5 953.1 1509.4" class="st29"/><polygon id="XMLID_175_" points="1087.3 1588.8 1087.3 1671.7 1111.8 1686 1111.8 1602.7" class="st19"/><polygon id="XMLID_174_" points="1118.2 1606.9 1118.2 1682.1 1111.8 1686 1111.8 1602.7" class="st12"/><polygon id="XMLID_173_" points="1087.3 1588.8 1111.8 1602.7 1111.8 1615.4 1087.3 1602.1" class="st28"/><polygon id="XMLID_172_" points="1111.8 1615.4 1118.2 1611.9 1118.2 1606.9 1111.8 1602.7" class="st29"/></g></svg>